<svg xmlns="http://www.w3.org/2000/svg" version="1.1" xmlns:xlink="http://www.w3.org/1999/xlink"
    xmlns:svgjs="http://svgjs.com/svgjs" width="80" height="80"><svg width="80" height="80" viewBox="0 0 80 80"
        fill="none" xmlns="http://www.w3.org/2000/svg">
        <path
            d="M17.9297 49H12.8496L10.582 41.916L9.75586 39.0332L8.96484 41.9863L6.73242 49H1.86328L0.580078 26.0254H4.39453L4.93945 40.7559L5.08008 44.7812L6.11719 41.1953L8.64844 33.0215H11.373L14.0449 41.6875L14.9062 44.7461L14.9766 41.1602L15.5566 26.0254H19.2305L17.9297 49ZM38.1094 33.3379C38.1094 34.5332 37.9102 35.6406 37.5117 36.6602C37.1133 37.668 36.5215 38.541 35.7363 39.2793C34.9512 40.0176 33.9727 40.5918 32.8008 41.002C31.6289 41.4121 30.2695 41.6172 28.7227 41.6172H26.5254V49H22.166V26.0254H28.8984C30.3867 26.0254 31.6992 26.1895 32.8359 26.5176C33.9844 26.834 34.9453 27.3027 35.7188 27.9238C36.5039 28.5449 37.0957 29.3125 37.4941 30.2266C37.9043 31.1289 38.1094 32.166 38.1094 33.3379ZM33.5742 33.6367C33.5742 33.0273 33.4746 32.4766 33.2754 31.9844C33.0879 31.4805 32.7949 31.0527 32.3965 30.7012C32.0098 30.3496 31.5176 30.0801 30.9199 29.8926C30.3223 29.7051 29.6133 29.6113 28.793 29.6113H26.5254V38.0312H28.9336C29.6836 38.0312 30.3457 37.9316 30.9199 37.7324C31.4941 37.5215 31.9746 37.2227 32.3613 36.8359C32.7598 36.4492 33.0586 35.9863 33.2578 35.4473C33.4688 34.9082 33.5742 34.3047 33.5742 33.6367ZM54.7734 49L54.3516 36.0098L54.1934 30.8242L53.0859 34.3398L50.5371 42.1621H47.8301L45.5273 34.3398L44.5605 30.8242L44.4375 35.9043L44.0508 49H40.377L41.502 26.0254H46.3887L48.4102 32.5469L49.377 36.2207L50.3438 32.7578L52.4707 26.0254H57.4453L58.5879 49H54.7734Z"
            fill="black"></path>
        <path d="M59.3789 56.207V52.8145H79.1719V56.207H59.3789Z" fill="#8C8C8C"></path>
    </svg>
    <style>
        @media (prefers-color-scheme: light) {
            :root {
                filter: none;
            }
        }

        @media (prefers-color-scheme: dark) {
            :root {
                filter: invert(1);
            }
        }
    </style>
</svg>