<?xml version="1.0" standalone="no"?>
<!DOCTYPE svg PUBLIC "-//W3C//DTD SVG 20010904//EN"
 "http://www.w3.org/TR/2001/REC-SVG-20010904/DTD/svg10.dtd">
<svg version="1.0" xmlns="http://www.w3.org/2000/svg"
 width="2560.000000pt" height="2560.000000pt" viewBox="0 0 2560.000000 2560.000000"
 preserveAspectRatio="xMidYMid meet">
<metadata>
Created by potrace 1.14, written by Peter Selinger 2001-2017
</metadata>
<g transform="translate(0.000000,2560.000000) scale(0.100000,-0.100000)"
fill="#000000" stroke="none">
<path d="M187 17713 c1 -21 3 -68 5 -105 2 -38 7 -68 11 -68 4 0 3 -8 -2 -19
-6 -10 -8 -21 -5 -24 3 -2 7 -49 10 -103 3 -55 7 -135 9 -179 3 -44 7 -120 10
-170 2 -49 7 -128 10 -175 2 -47 7 -128 10 -180 10 -177 16 -285 21 -365 2
-44 7 -120 9 -170 6 -116 14 -257 30 -545 4 -52 8 -140 10 -195 2 -55 5 -100
6 -100 1 0 2 -22 4 -50 8 -167 16 -309 20 -370 3 -38 8 -117 10 -175 3 -58 7
-143 10 -190 3 -47 7 -118 9 -158 2 -40 6 -75 9 -78 3 -4 2 -16 -3 -29 -5 -13
-6 -26 -2 -30 4 -3 8 -27 9 -53 8 -204 13 -317 14 -317 2 0 5 -55 13 -210 4
-71 9 -161 11 -200 8 -129 16 -279 20 -355 2 -41 6 -118 10 -170 14 -247 17
-299 19 -360 1 -36 5 -71 9 -78 5 -7 3 -12 -3 -12 -6 0 -8 -5 -4 -12 5 -7 9
-40 10 -73 2 -57 10 -213 19 -370 2 -38 6 -110 9 -160 3 -49 8 -135 11 -190 4
-55 8 -134 10 -175 4 -89 12 -234 21 -380 11 -196 12 -215 19 -355 3 -77 8
-151 10 -165 3 -14 5 -62 7 -107 2 -74 4 -84 22 -90 32 -10 56 -11 62 -1 3 4
14 4 24 -2 13 -7 21 -7 25 0 4 6 11 8 16 5 13 -9 99 -11 99 -3 0 4 13 3 30 -2
18 -5 32 -5 36 1 3 5 12 6 21 0 9 -5 29 -5 44 -1 15 5 30 6 33 2 8 -7 74 -7
82 0 3 4 19 2 35 -2 17 -5 29 -5 29 0 0 6 10 6 25 0 15 -6 26 -6 30 1 4 5 11
7 16 4 13 -9 99 -11 99 -3 0 4 13 3 30 -2 18 -5 32 -5 36 1 3 5 12 6 21 1 8
-5 33 -6 54 -2 21 4 39 5 39 1 0 -8 129 -6 137 2 3 4 14 2 24 -3 12 -7 20 -7
24 0 4 6 11 8 16 5 13 -9 99 -11 99 -3 0 4 13 3 30 -2 18 -5 32 -5 36 1 3 5
12 6 21 0 9 -5 29 -5 45 -1 15 5 30 5 33 0 3 -5 19 -5 35 0 17 5 30 5 30 0 0
-5 12 -5 28 -1 15 5 36 5 47 1 38 -14 52 7 96 142 23 73 44 138 45 143 1 6 11
38 22 73 11 34 17 62 13 62 -3 0 -1 4 6 8 7 4 14 21 17 38 3 17 13 47 21 67 8
21 13 37 10 37 -2 0 4 20 15 45 11 25 18 45 16 45 -3 0 6 28 18 63 13 34 23
64 23 67 0 3 26 86 58 185 33 99 59 182 60 185 1 3 8 30 18 60 9 30 17 60 18
65 0 6 5 18 11 28 10 19 19 52 20 75 1 6 4 12 8 12 4 0 7 6 8 13 1 14 10 51
12 55 2 1 3 5 4 10 1 4 4 12 7 17 6 10 21 60 24 80 0 6 4 17 7 25 4 8 35 103
68 210 34 107 73 226 86 264 13 38 21 73 18 78 -3 4 -1 8 4 8 7 0 18 32 37
110 12 45 20 76 36 128 10 35 18 66 17 70 -1 4 2 14 5 22 6 15 38 123 37 128
0 2 1 6 5 20 1 4 5 21 9 37 4 17 10 37 13 45 3 8 7 22 8 30 2 18 104 398 112
420 5 15 40 -89 77 -235 2 -5 6 -17 9 -25 3 -8 14 -49 25 -90 11 -41 35 -124
52 -185 18 -60 33 -117 35 -125 2 -8 4 -15 5 -15 1 0 3 -7 5 -15 2 -8 11 -40
20 -70 9 -30 18 -62 20 -70 14 -53 131 -422 153 -480 9 -25 16 -49 17 -55 0
-5 16 -57 35 -115 18 -58 33 -106 32 -108 -2 -1 5 -16 13 -32 8 -16 15 -32 14
-35 -1 -3 3 -18 9 -33 10 -28 66 -203 67 -212 1 -3 18 -56 39 -119 20 -62 35
-116 32 -118 -2 -3 4 -20 15 -39 10 -19 19 -46 19 -59 0 -14 5 -25 10 -25 6 0
10 -9 10 -21 0 -11 5 -30 11 -42 7 -12 13 -28 13 -37 1 -13 108 -353 123 -390
4 -8 7 -17 7 -20 2 -9 48 -151 77 -240 15 -47 29 -94 31 -105 5 -33 34 -57 72
-59 20 -1 36 2 36 6 0 3 13 3 30 -2 18 -5 32 -5 36 1 3 5 12 6 21 1 8 -5 33
-6 54 -2 21 4 39 5 39 1 0 -8 129 -6 137 2 3 4 14 2 24 -3 12 -7 20 -7 24 0 4
6 11 8 16 5 13 -9 99 -11 99 -3 0 4 13 3 30 -2 18 -5 32 -5 36 1 3 5 12 6 21
0 9 -5 29 -5 44 -1 15 5 30 6 33 2 3 -3 22 -5 41 -5 19 0 38 2 41 5 3 4 19 2
35 -2 17 -5 29 -5 29 0 0 6 10 6 25 0 15 -6 27 -6 30 0 3 5 15 6 27 1 12 -4
37 -5 55 -1 17 4 34 5 37 2 5 -5 71 -6 79 -2 8 5 77 4 77 -2 0 -4 13 -3 30 2
16 5 30 6 30 2 0 -6 69 -7 95 -2 6 1 15 1 20 0 18 -4 138 1 146 5 4 3 10 1 14
-5 4 -7 12 -7 25 0 12 6 21 7 25 0 8 -13 37 0 31 15 -2 7 -2 15 1 18 4 5 13
163 17 294 0 29 3 53 6 53 3 0 5 39 5 88 0 48 1 91 3 95 2 4 5 45 7 90 2 45 7
136 10 202 4 66 9 145 10 175 2 30 4 55 5 55 1 0 3 43 5 95 2 52 6 138 9 190
4 52 8 131 11 175 2 44 7 126 10 182 4 56 8 135 10 175 5 98 15 267 20 353 2
39 7 115 10 170 3 55 8 136 10 180 7 106 14 239 20 355 3 52 8 133 10 180 9
135 15 248 19 340 3 47 7 126 10 175 4 50 9 133 12 185 2 52 7 131 9 175 3 44
7 121 10 170 2 50 5 90 5 90 1 0 3 43 6 95 2 52 7 129 9 170 2 41 7 122 10
180 3 58 7 143 10 190 12 208 16 279 18 330 2 30 6 60 10 67 4 6 3 14 -3 18
-6 4 -8 11 -4 16 3 6 7 45 9 87 2 42 6 121 9 175 3 53 9 141 12 195 12 212 14
250 18 332 3 47 7 128 10 180 3 52 8 140 11 195 3 55 8 136 11 180 2 44 6 116
9 160 2 44 6 123 9 175 4 52 9 145 12 205 3 61 8 113 11 118 2 4 -262 7 -586
7 -325 0 -592 -3 -592 -7 -2 -16 -7 -121 -9 -220 -2 -74 -5 -101 -14 -96 -8 5
-8 3 0 -8 6 -8 9 -34 8 -59 -2 -25 -5 -112 -8 -195 -3 -82 -8 -202 -11 -265
-2 -63 -7 -187 -10 -275 -3 -88 -8 -207 -10 -265 -3 -58 -7 -170 -10 -250 -3
-80 -7 -194 -10 -255 -2 -60 -7 -177 -10 -260 -3 -82 -8 -204 -10 -270 -6
-137 -13 -329 -19 -522 -3 -73 -7 -137 -10 -142 -4 -5 -2 -12 4 -16 6 -4 7
-12 3 -18 -4 -7 -8 -46 -9 -87 -2 -73 -10 -296 -20 -535 -2 -66 -6 -173 -8
-238 -2 -65 -6 -120 -9 -124 -4 -3 -2 -14 4 -24 5 -11 6 -19 2 -19 -4 0 -8
-51 -8 -113 0 -61 -2 -116 -4 -121 -2 -5 -6 -72 -8 -150 -2 -77 -6 -197 -8
-266 -3 -69 -6 -234 -8 -367 -1 -134 -5 -243 -9 -243 -4 0 -4 -10 1 -23 5 -13
5 -30 0 -39 -6 -11 -5 -19 1 -23 6 -4 7 -11 3 -18 -3 -6 -7 -88 -9 -181 -3
-258 -4 -280 -9 -274 -3 3 -8 17 -11 32 -2 14 -9 37 -14 51 -5 14 -7 25 -5 25
2 0 0 12 -6 28 -6 15 -19 56 -29 92 -10 36 -26 92 -35 125 -9 33 -18 67 -20
75 -2 8 -20 71 -40 140 -21 69 -39 132 -40 140 -2 8 -14 49 -25 90 -12 41 -23
82 -25 90 -2 8 -8 27 -14 43 -6 15 -9 27 -6 27 2 0 -3 16 -11 35 -8 19 -15 38
-15 42 -1 5 -3 13 -5 18 -7 23 -48 160 -49 165 -1 8 -45 146 -72 230 -14 41
-27 84 -30 95 -6 26 -9 37 -16 55 -3 8 -15 49 -27 90 -12 41 -25 84 -30 95
-17 46 -43 136 -43 150 0 8 -5 15 -10 15 -5 0 -7 6 -4 14 3 7 1 18 -3 22 -5 5
-11 21 -14 34 -2 14 -5 25 -6 25 -1 0 -3 7 -5 15 -2 8 -15 53 -30 100 -15 47
-38 123 -51 170 -14 47 -29 94 -33 105 -5 11 -19 54 -31 95 -12 41 -26 86 -31
100 -5 14 -11 34 -14 45 -2 11 -15 54 -29 95 -13 41 -22 78 -20 82 3 4 1 8 -4
8 -8 0 -27 74 -23 93 0 4 -4 7 -9 7 -5 0 -9 3 -8 8 1 4 -8 38 -21 76 -12 39
-23 78 -24 88 -1 10 -5 18 -9 18 -4 0 -7 3 -6 8 3 7 -9 49 -43 152 -10 30 -23
75 -30 100 -15 54 -14 51 -22 70 -8 21 -55 179 -63 213 -3 15 -11 30 -17 34
-10 6 -828 11 -858 5 -12 -3 -36 -61 -39 -97 -1 -2 -8 -21 -16 -40 -8 -20 -12
-40 -9 -45 3 -4 2 -10 -2 -12 -6 -2 -36 -88 -77 -223 -1 -5 -6 -27 -11 -48 -4
-20 -11 -39 -15 -42 -5 -3 -11 -24 -15 -48 -4 -23 -11 -46 -15 -52 -4 -5 -13
-32 -20 -60 -7 -27 -17 -56 -23 -62 -5 -7 -7 -13 -3 -13 3 0 0 -17 -8 -37 -7
-21 -28 -87 -46 -148 -17 -60 -38 -126 -45 -145 -8 -19 -22 -64 -31 -100 -9
-36 -21 -73 -26 -83 -5 -10 -11 -28 -13 -39 -5 -23 -23 -84 -32 -108 -9 -21
-9 -22 -17 -55 -4 -16 -11 -38 -17 -47 -5 -10 -9 -23 -9 -29 0 -11 -48 -171
-90 -299 -10 -30 -32 -102 -50 -160 -17 -58 -38 -123 -45 -145 -21 -59 -59
-189 -60 -200 0 -5 -3 -14 -7 -20 -3 -5 -14 -37 -23 -70 -24 -78 -22 -73 -36
-125 -7 -25 -15 -47 -18 -50 -3 -3 -7 -10 -8 -16 -7 -38 -17 -75 -58 -214 -26
-85 -48 -164 -50 -175 -3 -11 -14 -49 -25 -85 -23 -76 -73 -246 -91 -310 -7
-25 -13 -47 -14 -50 -1 -3 -7 -25 -14 -50 -6 -25 -15 -52 -18 -60 -3 -8 -5
-19 -4 -24 1 -4 -4 -14 -10 -22 -6 -8 -9 -14 -6 -14 3 0 -2 -24 -13 -54 -10
-30 -15 -58 -12 -62 4 -4 2 -4 -4 -1 -7 4 -12 34 -12 69 -1 59 -7 256 -17 513
-3 61 -7 178 -9 260 -3 83 -8 215 -10 295 -3 80 -8 210 -11 290 -3 80 -8 208
-10 285 -3 77 -8 196 -10 265 -3 69 -7 181 -10 250 -3 69 -7 190 -10 270 -10
300 -15 426 -18 458 -2 17 2 32 7 32 8 0 8 3 1 8 -6 4 -11 25 -12 47 -1 67
-13 433 -19 550 -2 61 -7 173 -9 250 -12 339 -16 451 -31 825 -3 80 -7 200 -9
268 -1 68 -5 125 -8 129 -4 3 -2 13 3 23 5 10 6 20 3 24 -4 4 -8 50 -9 104 -7
250 -13 372 -19 381 -3 6 -1 11 5 11 6 0 8 5 5 10 -4 6 -9 75 -12 153 -3 78
-6 156 -6 172 l-2 30 -610 3 -610 2 2 -37z"/>
<path d="M7093 14075 c0 -3058 3 -3675 14 -3671 7 3 13 1 13 -4 0 -5 13 -5 30
0 17 5 30 6 30 2 0 -4 11 -7 25 -7 14 0 25 3 25 7 0 4 11 3 25 -2 15 -6 26 -6
30 1 4 5 11 7 16 4 13 -9 99 -11 99 -3 0 4 13 3 30 -2 18 -5 32 -5 36 1 3 5
12 6 21 1 8 -5 33 -6 54 -2 21 4 39 5 39 1 0 -8 129 -6 137 2 3 4 14 2 24 -3
12 -7 20 -7 24 0 4 6 11 8 16 5 13 -9 99 -11 99 -3 0 4 13 3 30 -2 18 -5 32
-5 36 1 3 5 12 6 21 0 9 -5 29 -5 44 -1 15 5 30 6 33 2 5 -4 71 -7 79 -2 8 5
77 4 77 -2 0 -4 14 -3 30 2 17 5 30 6 30 2 0 -8 86 -6 100 3 5 3 10 3 10 -2 0
-4 17 -7 37 -6 21 1 48 2 59 2 l22 1 -2 1180 -1 1180 35 0 c19 1 253 3 520 5
267 2 499 6 515 9 17 2 66 7 110 11 44 4 94 9 110 11 17 2 50 7 75 10 47 5 77
10 120 19 14 3 52 10 85 16 33 6 96 20 140 31 44 11 85 21 90 22 67 15 252 77
355 119 95 39 299 137 345 167 17 11 36 23 44 27 13 6 113 70 165 105 24 17
166 129 187 148 67 61 189 185 189 192 0 4 7 8 17 8 9 0 14 3 10 6 -3 3 26 45
64 92 106 132 109 136 109 149 0 6 4 13 9 15 10 3 115 186 152 263 13 28 28
53 32 56 5 3 9 10 8 15 -1 18 11 54 18 54 4 0 8 6 9 13 0 6 23 77 50 157 28
80 52 159 55 175 3 17 10 45 16 63 5 17 8 32 6 32 -3 0 -1 10 4 23 5 12 11 42
15 67 3 25 9 56 12 70 3 14 7 43 10 65 2 22 6 56 9 75 24 183 24 612 0 651 -6
8 -4 10 5 4 8 -5 11 -4 6 3 -3 6 -9 32 -12 59 -3 26 -7 59 -10 73 -3 14 -7 39
-10 55 -2 17 -7 41 -11 55 -3 14 -7 34 -9 45 -5 29 -12 60 -14 63 -2 1 -3 5
-4 10 -16 71 -31 119 -39 130 -5 6 -7 12 -4 12 8 0 -45 132 -93 235 -24 50
-44 97 -46 105 -2 8 -8 16 -13 18 -6 2 -11 10 -11 18 0 8 -4 14 -8 14 -5 0
-14 16 -22 35 -8 19 -17 35 -20 35 -3 0 -17 19 -30 42 -13 23 -29 49 -36 57
-130 166 -270 307 -399 403 -28 21 -54 41 -60 46 -5 4 -18 11 -27 15 -10 3
-18 11 -18 17 0 6 -4 8 -10 5 -5 -3 -10 -2 -10 3 0 5 -12 15 -27 22 -16 8 -39
22 -53 31 -93 60 -330 170 -465 214 -44 14 -88 31 -98 36 -10 5 -22 7 -27 4
-6 -4 -10 -2 -10 3 0 5 -6 9 -12 9 -7 1 -58 13 -113 28 -55 15 -107 29 -115
30 -8 2 -15 4 -15 5 0 1 -11 4 -25 6 -14 2 -45 8 -70 14 -25 6 -52 11 -60 11
-8 0 -22 3 -30 6 -8 3 -28 7 -45 8 -16 2 -43 6 -60 9 -16 4 -58 9 -92 13 -35
3 -63 9 -63 12 0 3 -28 7 -63 7 -34 1 -87 5 -117 9 -30 4 -631 9 -1336 12
l-1281 4 0 -3676z m2342 2521 c91 -5 149 -12 195 -21 14 -3 39 -8 55 -10 69
-12 94 -18 175 -41 342 -100 571 -273 734 -556 15 -27 23 -48 19 -48 -4 0 -2
-4 5 -9 7 -4 14 -18 15 -29 1 -12 5 -22 10 -22 4 0 6 -4 2 -9 -3 -5 -1 -12 4
-15 8 -5 25 -63 22 -78 0 -5 3 -8 7 -8 5 0 9 -6 10 -12 0 -7 8 -44 17 -83 26
-112 37 -212 38 -330 0 -81 -10 -226 -19 -267 -3 -13 -7 -39 -9 -58 -8 -64
-60 -247 -75 -265 -5 -7 -11 -20 -13 -31 -9 -48 -120 -244 -173 -304 -53 -60
-219 -220 -229 -220 -3 0 -26 -15 -52 -34 -66 -47 -256 -139 -308 -150 -5 -1
-36 -10 -68 -20 -32 -9 -62 -14 -67 -11 -6 3 -10 2 -10 -4 0 -5 -8 -10 -17
-10 -16 0 -58 -8 -58 -11 0 -1 -18 -3 -40 -6 -22 -2 -60 -7 -85 -10 -25 -4
-267 -9 -537 -11 -472 -4 -493 -4 -494 14 0 24 0 2621 0 2653 l1 25 428 -1
c235 -1 468 -5 517 -8z"/>
<path d="M13279 17733 c-2 -64 -8 -185 -13 -283 -17 -340 -21 -406 -31 -620
-3 -69 -7 -161 -10 -205 -2 -44 -7 -138 -10 -210 -10 -222 -14 -275 -20 -284
-3 -6 -1 -12 5 -16 6 -4 8 -11 4 -17 -7 -11 -15 -161 -17 -325 -1 -62 -4 -113
-7 -113 -3 0 -6 -33 -7 -72 -3 -138 -13 -310 -19 -319 -3 -5 0 -9 6 -9 6 0 8
-5 4 -12 -4 -6 -8 -39 -10 -72 -2 -34 -6 -115 -9 -181 -3 -66 -8 -163 -10
-215 -11 -256 -14 -300 -21 -311 -5 -8 -3 -9 6 -4 9 6 11 4 5 -5 -5 -8 -10
-57 -11 -109 -2 -53 -3 -96 -4 -96 -1 0 -3 -43 -5 -95 -2 -52 -4 -95 -5 -95
-1 0 -7 -124 -15 -315 -2 -52 -4 -95 -5 -95 -1 0 -3 -43 -5 -95 -2 -52 -6
-142 -9 -200 -3 -58 -8 -159 -11 -225 -3 -66 -8 -154 -10 -195 -3 -41 -7 -127
-10 -190 -2 -63 -6 -158 -9 -210 -3 -52 -8 -151 -11 -220 -4 -69 -8 -156 -10
-195 -3 -38 -7 -126 -10 -195 -2 -69 -7 -166 -10 -215 -8 -162 -17 -329 -20
-415 -4 -77 -8 -161 -20 -395 -2 -44 -7 -141 -10 -215 -4 -74 -8 -168 -10
-208 -3 -68 -2 -74 18 -81 12 -5 32 -5 44 0 13 5 25 4 28 -1 4 -6 13 -7 24 -1
9 5 23 6 29 2 7 -4 35 -4 62 -1 28 4 50 3 50 -1 0 -4 14 -4 30 1 17 5 30 6 30
2 0 -9 68 -7 76 1 4 4 15 2 25 -3 12 -7 20 -7 24 0 4 6 13 7 21 2 8 -5 37 -5
64 -2 28 4 50 3 50 -1 0 -4 14 -4 30 1 17 5 30 6 30 2 0 -9 68 -7 76 1 4 4 15
2 25 -3 12 -7 20 -7 24 0 4 6 13 7 21 2 8 -5 37 -5 64 -2 28 4 50 3 50 -1 0
-4 14 -4 30 1 17 5 30 6 30 2 0 -9 68 -7 76 1 4 4 15 2 25 -3 12 -7 20 -7 24
0 4 6 13 7 21 2 8 -5 29 -6 45 -4 24 4 30 9 26 23 -3 11 -1 21 4 24 4 3 4 16
-1 29 -5 13 -7 26 -4 28 3 4 7 113 19 538 2 69 4 125 4 125 1 0 4 90 6 200 3
110 7 268 10 350 5 173 18 595 30 1005 2 91 7 246 10 345 3 99 8 254 10 345 3
91 7 235 10 320 17 533 34 1174 40 1467 1 105 6 196 9 202 4 5 2 12 -4 16 -6
4 -7 11 -4 17 4 5 8 90 10 187 5 240 12 531 14 561 1 19 5 14 16 -20 8 -25 16
-54 18 -66 6 -28 37 -145 44 -164 3 -8 4 -21 3 -27 -1 -7 4 -13 10 -13 7 0 10
-3 7 -6 -3 -3 1 -29 9 -57 8 -29 16 -61 18 -72 2 -11 4 -20 5 -20 1 0 3 -7 5
-15 2 -8 17 -62 33 -120 17 -58 40 -141 52 -185 12 -44 31 -111 41 -150 11
-38 21 -77 23 -85 3 -8 14 -49 26 -90 12 -41 23 -82 25 -90 2 -8 4 -15 5 -15
1 0 3 -8 6 -17 2 -10 6 -24 7 -30 2 -7 7 -26 12 -43 4 -16 12 -36 18 -42 5 -7
7 -13 4 -13 -3 0 3 -27 13 -60 10 -33 16 -60 13 -60 -3 0 -1 -6 5 -12 6 -7 17
-38 25 -68 26 -93 82 -289 126 -434 16 -55 28 -103 25 -108 -3 -4 -1 -8 4 -8
7 0 32 -78 33 -102 0 -4 6 -23 15 -43 8 -19 15 -38 15 -42 1 -5 3 -12 5 -18 9
-31 37 -132 38 -140 1 -5 7 -23 13 -40 11 -28 24 -77 28 -100 0 -5 4 -17 8
-25 3 -8 13 -42 22 -75 9 -33 19 -67 22 -75 3 -8 7 -20 8 -26 3 -12 44 -152
80 -269 13 -44 25 -89 27 -100 2 -11 6 -22 9 -25 5 -4 19 -50 33 -110 13 -52
39 -138 47 -155 5 -11 10 -32 11 -47 1 -16 6 -28 10 -28 4 0 7 -3 7 -7 -1 -5
2 -23 6 -40 7 -30 11 -33 44 -34 48 -1 768 -1 807 0 27 1 32 6 38 31 3 17 5
31 5 33 0 1 7 20 16 41 9 22 18 47 20 55 2 9 10 35 18 58 9 22 13 44 10 47 -4
3 0 6 7 6 7 0 11 3 8 6 -4 3 5 38 19 77 14 40 26 77 27 82 1 6 7 24 13 40 14
35 154 465 157 480 1 6 7 24 13 40 6 17 21 62 33 100 12 39 24 77 27 85 3 8 7
20 8 26 2 6 36 109 76 230 40 120 74 224 75 229 2 12 72 224 81 245 3 8 5 19
4 24 -1 4 3 14 10 22 6 7 8 18 4 24 -3 5 -2 10 3 10 5 0 9 6 9 13 0 6 16 59
36 117 33 97 145 442 151 465 2 6 6 17 9 25 9 24 49 159 48 165 0 2 8 25 19
50 11 25 17 45 15 45 -3 0 1 16 9 35 8 19 12 35 9 35 -3 0 -1 6 4 13 6 6 16
36 23 65 6 28 15 52 19 52 4 0 7 8 7 18 1 15 37 131 134 437 12 39 25 73 29
77 3 4 7 -37 8 -90 4 -246 12 -452 17 -461 4 -5 2 -12 -2 -15 -7 -4 -9 -51 -2
-51 2 0 7 -156 14 -407 2 -92 7 -172 11 -177 3 -6 1 -11 -5 -11 -6 0 -8 -5 -5
-10 4 -6 8 -90 11 -186 2 -96 6 -180 9 -185 4 -5 0 -9 -7 -9 -8 0 -9 -3 -3 -8
6 -4 10 -58 10 -125 0 -66 3 -121 7 -123 4 -2 4 -17 2 -32 -3 -15 -5 -34 -5
-42 0 -8 3 -60 6 -115 3 -55 6 -170 9 -256 2 -86 6 -161 10 -167 3 -6 2 -13
-4 -17 -6 -4 -7 -11 -4 -17 4 -6 8 -70 9 -143 1 -73 4 -137 6 -141 2 -5 4 -69
4 -141 0 -73 2 -133 5 -133 3 0 6 -9 6 -20 0 -11 -4 -20 -9 -20 -4 0 -6 -4 -2
-9 11 -19 12 -71 1 -71 -7 0 -7 -3 -1 -8 9 -6 14 -97 18 -362 1 -58 7 -108 12
-112 6 -5 5 -8 -3 -8 -7 0 -11 -4 -7 -9 3 -5 8 -94 11 -198 3 -103 7 -246 9
-318 3 -71 6 -194 7 -272 2 -79 7 -143 11 -143 4 0 3 -9 -3 -20 -6 -11 -7 -20
-3 -20 4 0 9 -55 10 -123 0 -67 4 -219 8 -337 4 -118 8 -256 9 -305 1 -50 5
-96 10 -103 4 -6 3 -12 -3 -12 -6 0 -8 -6 -5 -14 3 -7 7 -62 9 -122 2 -60 4
-113 4 -118 1 -4 8 -6 16 -3 8 4 16 3 19 -1 5 -9 64 -8 72 1 4 3 15 2 25 -3
12 -7 20 -7 24 0 4 6 11 8 16 5 13 -9 99 -11 99 -3 0 4 13 3 30 -2 18 -5 32
-5 36 1 3 5 12 6 21 0 9 -5 29 -5 44 -1 15 5 30 6 33 2 3 -3 22 -5 41 -5 19 0
38 2 41 5 3 4 19 2 35 -2 17 -5 29 -5 29 0 0 6 10 6 25 0 15 -6 26 -6 30 1 4
5 11 7 16 4 13 -9 99 -11 99 -3 0 4 13 3 30 -2 18 -5 32 -5 36 1 3 5 12 6 21
1 8 -5 33 -6 54 -2 21 4 39 5 39 1 0 -8 129 -6 137 2 3 4 14 2 24 -3 11 -7 20
-7 24 0 3 5 15 6 26 1 12 -4 33 -5 48 -3 l27 4 -3 86 c-1 48 -5 128 -8 177 -3
50 -7 136 -9 192 -2 56 -7 106 -11 112 -3 6 -1 11 5 11 6 0 8 5 3 13 -4 6 -8
41 -9 77 -1 36 -5 121 -9 190 -7 129 -12 239 -19 420 -3 58 -6 105 -6 105 -1
0 -3 43 -6 95 -2 52 -6 131 -9 175 -5 112 -16 336 -19 426 -2 42 -6 82 -11 89
-6 9 -4 11 5 5 9 -5 11 -4 6 4 -4 7 -10 51 -12 99 -8 179 -14 310 -19 402 -2
52 -7 140 -10 195 -2 55 -7 150 -10 210 -3 61 -8 148 -10 195 -2 47 -7 141
-10 210 -9 171 -11 210 -29 600 -3 63 -8 156 -11 205 -3 50 -8 135 -10 190 -3
55 -7 145 -10 200 -10 196 -14 292 -21 420 -3 72 -7 159 -9 195 -2 36 -6 119
-9 185 -4 66 -8 158 -11 205 -11 207 -17 362 -19 447 0 51 -3 93 -6 93 -3 0
-6 30 -7 68 -2 64 -8 200 -18 402 -3 52 -7 141 -9 197 -2 56 -7 106 -10 112
-4 5 -2 12 4 16 6 4 7 12 3 18 -4 7 -8 41 -10 77 -1 36 -4 101 -6 145 l-3 80
-798 0 -798 0 -13 -40 c-7 -22 -20 -68 -30 -102 -10 -35 -22 -63 -27 -63 -5 0
-7 -4 -4 -8 2 -4 -20 -87 -51 -183 -30 -95 -56 -178 -57 -184 -2 -5 -6 -17 -9
-25 -18 -42 -45 -145 -41 -152 3 -4 1 -8 -4 -8 -5 0 -13 -15 -17 -32 -4 -18
-8 -35 -9 -38 -1 -3 -4 -9 -7 -15 -4 -5 -10 -26 -15 -45 -11 -49 -11 -50 -29
-100 -18 -48 -26 -77 -27 -97 -1 -7 -5 -13 -10 -13 -4 0 -7 -3 -6 -7 2 -8 -37
-143 -51 -178 -7 -17 -41 -124 -47 -147 -1 -5 -2 -9 -4 -10 -1 -2 -3 -10 -5
-18 -1 -8 -10 -37 -20 -65 -9 -27 -18 -54 -19 -60 -2 -5 -6 -17 -9 -25 -9 -24
-29 -90 -32 -108 -2 -9 -4 -18 -5 -19 -2 -2 -4 -7 -5 -13 -1 -5 -4 -12 -5 -15
-1 -3 -3 -8 -5 -12 -1 -5 -4 -15 -8 -23 -5 -13 -60 -188 -62 -200 -6 -25 -28
-97 -33 -105 -4 -5 -7 -16 -8 -23 -1 -7 -9 -36 -18 -65 -25 -86 -97 -341 -101
-358 -5 -23 -26 -102 -33 -119 -3 -8 -6 -20 -7 -25 -2 -6 -12 -43 -23 -83 -11
-39 -18 -72 -15 -72 3 0 0 -7 -7 -15 -7 -8 -10 -15 -7 -15 3 0 -1 -16 -9 -35
-8 -19 -11 -35 -8 -35 4 0 1 -7 -6 -15 -6 -8 -9 -19 -6 -24 4 -5 1 -13 -5 -16
-5 -4 -8 -13 -5 -21 3 -8 0 -14 -6 -14 -6 0 -9 -2 -6 -6 3 -3 -1 -26 -8 -52
-8 -26 -17 -60 -20 -77 -3 -16 -9 -34 -14 -41 -6 -6 -8 -14 -5 -18 3 -3 1 -3
-4 1 -6 6 -46 150 -77 276 -2 9 -6 25 -9 35 -8 28 -35 136 -40 155 -2 10 -9
32 -14 50 -6 18 -13 46 -17 62 -9 37 -11 44 -14 50 -3 7 -5 14 -15 60 -13 56
-12 55 -15 58 -1 1 -3 9 -5 17 -1 8 -10 39 -18 68 -9 28 -14 52 -12 52 2 0 -3
16 -11 36 -8 20 -13 39 -10 41 3 3 0 15 -6 27 -7 11 -11 25 -10 30 2 5 -2 21
-7 35 -10 25 -16 49 -28 114 -3 15 -9 27 -14 27 -5 0 -8 3 -8 8 1 4 1 9 -1 12
-1 3 -4 16 -6 30 -4 21 -75 252 -92 300 -9 27 -31 102 -32 112 -1 4 -7 23 -16
43 -8 19 -11 35 -8 35 4 0 2 6 -3 13 -6 6 -14 26 -18 42 -5 17 -9 35 -11 40
-6 24 -155 503 -163 525 -13 35 -84 265 -82 265 1 0 -8 27 -19 60 -11 33 -21
62 -22 65 -1 7 -1 8 -44 145 -21 66 -39 126 -40 134 -1 7 -14 47 -27 90 -14
42 -28 88 -31 104 l-6 27 -785 0 c-741 0 -785 -1 -786 -17z"/>
<path d="M19087 9184 c-3 -3 -23 -7 -44 -7 -35 -2 -38 -4 -38 -29 1 -16 -3
-28 -8 -28 -4 0 -5 -5 -1 -12 10 -15 11 -88 2 -88 -3 0 -3 -12 1 -27 9 -35 7
-85 -3 -101 -4 -7 -4 -18 0 -24 9 -15 9 -132 0 -147 -4 -5 -3 -12 2 -15 9 -5
7 -99 -2 -115 -4 -5 -3 -12 2 -15 9 -6 9 -67 -1 -83 -4 -6 -3 -14 2 -18 7 -3
7 -15 1 -30 -5 -13 -6 -26 -2 -29 9 -5 9 -73 0 -82 -3 -3 -3 -18 2 -32 4 -15
4 -37 -1 -49 -4 -12 -5 -24 0 -27 8 -6 6 -59 -4 -75 -3 -6 -1 -11 5 -11 6 0 9
-4 6 -9 -24 -38 -134 -37 3167 -37 l3162 1 1 540 c0 297 -1 543 -3 548 -3 4
-13 3 -23 -3 -13 -7 -21 -7 -25 0 -4 7 -13 7 -26 0 -11 -6 -26 -7 -34 -3 -8 5
-42 6 -76 3 -33 -3 -63 -2 -65 2 -3 5 -10 5 -16 2 -15 -10 -119 -10 -125 -1
-2 4 -9 5 -14 1 -9 -5 -129 -8 -154 -3 -5 1 -14 0 -20 -1 -21 -4 -177 -1 -182
4 -3 3 -14 1 -24 -4 -12 -7 -20 -7 -24 0 -4 6 -11 8 -16 4 -13 -8 -118 -9
-125 -1 -3 3 -17 2 -30 -3 -14 -6 -26 -6 -29 0 -4 7 -13 6 -26 0 -11 -6 -26
-7 -34 -3 -8 5 -42 6 -76 3 -33 -3 -63 -2 -65 2 -3 5 -10 5 -16 2 -15 -10
-119 -10 -125 -1 -2 4 -9 5 -14 1 -9 -5 -129 -8 -154 -3 -5 1 -14 0 -20 -1
-21 -4 -177 -1 -182 4 -3 3 -14 1 -24 -4 -12 -7 -20 -7 -24 0 -4 6 -11 8 -16
4 -13 -8 -118 -9 -125 -1 -3 3 -17 2 -30 -3 -14 -6 -26 -6 -29 0 -4 7 -13 6
-26 0 -11 -6 -26 -7 -34 -3 -8 5 -42 6 -76 3 -33 -3 -63 -2 -65 2 -3 5 -10 5
-16 2 -9 -6 -192 -8 -208 -3 -3 1 -9 1 -14 0 -11 -2 -287 -2 -301 0 -5 1 -14
1 -19 0 -11 -2 -287 -2 -301 0 -5 1 -14 1 -19 0 -11 -2 -287 -2 -301 0 -5 1
-14 0 -20 -1 -22 -4 -268 -1 -272 4 -3 3 -14 1 -24 -4 -12 -7 -20 -7 -24 0 -4
6 -11 8 -16 4 -13 -8 -118 -9 -125 -1 -3 3 -17 2 -30 -3 -14 -6 -26 -6 -29 0
-4 7 -13 6 -26 0 -11 -6 -26 -7 -34 -3 -8 5 -42 6 -76 3 -33 -3 -63 -2 -65 2
-3 5 -10 5 -16 2 -15 -10 -119 -10 -125 -1 -2 4 -9 5 -14 1 -9 -5 -129 -8
-154 -3 -5 1 -14 0 -20 -1 -21 -4 -177 -1 -182 4 -3 3 -14 1 -24 -4 -12 -7
-20 -7 -24 0 -4 6 -11 8 -16 4 -13 -8 -118 -9 -125 -1 -3 3 -17 2 -30 -3 -14
-6 -26 -6 -29 0 -4 7 -13 6 -26 0 -11 -6 -26 -7 -34 -3 -8 5 -42 6 -76 3 -33
-3 -63 -2 -65 2 -3 5 -10 5 -16 2 -15 -10 -119 -10 -125 -1 -2 4 -9 5 -14 1
-9 -5 -129 -8 -154 -3 -5 1 -14 0 -20 -1 -21 -4 -177 -1 -182 4 -3 3 -14 1
-24 -4 -12 -7 -20 -7 -24 0 -4 6 -11 8 -16 4 -13 -8 -118 -9 -125 -1 -3 3 -17
2 -30 -3 -14 -6 -26 -6 -29 0 -4 7 -13 6 -26 0 -11 -6 -26 -7 -34 -3 -8 5 -42
6 -76 3 -33 -3 -63 -2 -65 2 -3 5 -10 5 -16 2 -13 -8 -193 -8 -206 0 -5 3 -12
3 -15 0z"/>
</g>
</svg>
