<svg width="255" height="73" viewBox="0 0 255 73" fill="none" xmlns="http://www.w3.org/2000/svg">
    <rect x="2.5" y="2.5" width="245" height="63" fill="var(--background)" />
    <rect x="2.5" y="2.5" width="245" height="63" stroke="var(--border)" stroke-width="5" />
    <path
        d="M33.9297 43H28.8496L26.582 35.916L25.7559 33.0332L24.9648 35.9863L22.7324 43H17.8633L16.5801 20.0254H20.3945L20.9395 34.7559L21.0801 38.7812L22.1172 35.1953L24.6484 27.0215H27.373L30.0449 35.6875L30.9062 38.7461L30.9766 35.1602L31.5566 20.0254H35.2305L33.9297 43ZM54.1094 27.3379C54.1094 28.5332 53.9102 29.6406 53.5117 30.6602C53.1133 31.668 52.5215 32.541 51.7363 33.2793C50.9512 34.0176 49.9727 34.5918 48.8008 35.002C47.6289 35.4121 46.2695 35.6172 44.7227 35.6172H42.5254V43H38.166V20.0254H44.8984C46.3867 20.0254 47.6992 20.1895 48.8359 20.5176C49.9844 20.834 50.9453 21.3027 51.7188 21.9238C52.5039 22.5449 53.0957 23.3125 53.4941 24.2266C53.9043 25.1289 54.1094 26.166 54.1094 27.3379ZM49.5742 27.6367C49.5742 27.0273 49.4746 26.4766 49.2754 25.9844C49.0879 25.4805 48.7949 25.0527 48.3965 24.7012C48.0098 24.3496 47.5176 24.0801 46.9199 23.8926C46.3223 23.7051 45.6133 23.6113 44.793 23.6113H42.5254V32.0312H44.9336C45.6836 32.0312 46.3457 31.9316 46.9199 31.7324C47.4941 31.5215 47.9746 31.2227 48.3613 30.8359C48.7598 30.4492 49.0586 29.9863 49.2578 29.4473C49.4688 28.9082 49.5742 28.3047 49.5742 27.6367ZM90.5664 43L90.1445 30.0098L89.9863 24.8242L88.8789 28.3398L86.3301 36.1621H83.623L81.3203 28.3398L80.3535 24.8242L80.2305 29.9043L79.8438 43H76.1699L77.2949 20.0254H82.1816L84.2031 26.5469L85.1699 30.2207L86.1367 26.7578L88.2637 20.0254H93.2383L94.3809 43H90.5664ZM108.812 43L108.707 40.6621C108.332 41.0605 107.939 41.4297 107.529 41.7695C107.119 42.0977 106.668 42.3848 106.176 42.6309C105.684 42.877 105.145 43.0645 104.559 43.1934C103.984 43.334 103.352 43.4043 102.66 43.4043C101.746 43.4043 100.943 43.2695 100.252 43C99.5605 42.7305 98.9805 42.3555 98.5117 41.875C98.043 41.3945 97.6855 40.8145 97.4395 40.1348C97.2051 39.4551 97.0879 38.7051 97.0879 37.8848C97.0879 37.041 97.2637 36.2617 97.6152 35.5469C97.9785 34.832 98.5234 34.2168 99.25 33.7012C99.9883 33.1855 100.902 32.7812 101.992 32.4883C103.094 32.1953 104.383 32.0488 105.859 32.0488H108.197V30.9766C108.197 30.5195 108.133 30.1094 108.004 29.7461C107.875 29.3711 107.664 29.0547 107.371 28.7969C107.09 28.5391 106.721 28.3398 106.264 28.1992C105.807 28.0586 105.244 27.9883 104.576 27.9883C103.521 27.9883 102.479 28.1113 101.447 28.3574C100.428 28.5918 99.4375 28.9258 98.4766 29.3594V25.9316C99.332 25.5918 100.316 25.3105 101.43 25.0879C102.555 24.8652 103.721 24.7539 104.928 24.7539C106.252 24.7539 107.389 24.8828 108.338 25.1406C109.287 25.3867 110.066 25.7617 110.676 26.2656C111.297 26.7695 111.754 27.4023 112.047 28.1641C112.34 28.9141 112.486 29.793 112.486 30.8008V43H108.812ZM108.197 35.1074H105.578C104.852 35.1074 104.236 35.1777 103.732 35.3184C103.229 35.459 102.818 35.6523 102.502 35.8984C102.186 36.1445 101.951 36.4316 101.799 36.7598C101.658 37.0762 101.588 37.416 101.588 37.7793C101.588 38.5059 101.822 39.0625 102.291 39.4492C102.76 39.8242 103.398 40.0117 104.207 40.0117C104.805 40.0117 105.426 39.7949 106.07 39.3613C106.715 38.9277 107.424 38.3066 108.197 37.498V35.1074ZM128.061 43V31.3633C128.061 29.4062 127.334 28.4277 125.881 28.4277C125.154 28.4277 124.457 28.7207 123.789 29.3066C123.133 29.8926 122.436 30.6895 121.697 31.6973V43H117.408V25.1406H121.117L121.223 27.7773C121.586 27.3203 121.961 26.9043 122.348 26.5293C122.746 26.1543 123.174 25.8379 123.631 25.5801C124.088 25.3105 124.58 25.1055 125.107 24.9648C125.635 24.8242 126.227 24.7539 126.883 24.7539C127.797 24.7539 128.594 24.9062 129.273 25.2109C129.953 25.5039 130.521 25.9258 130.979 26.4766C131.436 27.0156 131.775 27.6719 131.998 28.4453C132.232 29.207 132.35 30.0625 132.35 31.0117V43H128.061ZM148.398 43L148.293 40.6621C147.918 41.0605 147.525 41.4297 147.115 41.7695C146.705 42.0977 146.254 42.3848 145.762 42.6309C145.27 42.877 144.73 43.0645 144.145 43.1934C143.57 43.334 142.938 43.4043 142.246 43.4043C141.332 43.4043 140.529 43.2695 139.838 43C139.146 42.7305 138.566 42.3555 138.098 41.875C137.629 41.3945 137.271 40.8145 137.025 40.1348C136.791 39.4551 136.674 38.7051 136.674 37.8848C136.674 37.041 136.85 36.2617 137.201 35.5469C137.564 34.832 138.109 34.2168 138.836 33.7012C139.574 33.1855 140.488 32.7812 141.578 32.4883C142.68 32.1953 143.969 32.0488 145.445 32.0488H147.783V30.9766C147.783 30.5195 147.719 30.1094 147.59 29.7461C147.461 29.3711 147.25 29.0547 146.957 28.7969C146.676 28.5391 146.307 28.3398 145.85 28.1992C145.393 28.0586 144.83 27.9883 144.162 27.9883C143.107 27.9883 142.064 28.1113 141.033 28.3574C140.014 28.5918 139.023 28.9258 138.062 29.3594V25.9316C138.918 25.5918 139.902 25.3105 141.016 25.0879C142.141 24.8652 143.307 24.7539 144.514 24.7539C145.838 24.7539 146.975 24.8828 147.924 25.1406C148.873 25.3867 149.652 25.7617 150.262 26.2656C150.883 26.7695 151.34 27.4023 151.633 28.1641C151.926 28.9141 152.072 29.793 152.072 30.8008V43H148.398ZM147.783 35.1074H145.164C144.438 35.1074 143.822 35.1777 143.318 35.3184C142.814 35.459 142.404 35.6523 142.088 35.8984C141.771 36.1445 141.537 36.4316 141.385 36.7598C141.244 37.0762 141.174 37.416 141.174 37.7793C141.174 38.5059 141.408 39.0625 141.877 39.4492C142.346 39.8242 142.984 40.0117 143.793 40.0117C144.391 40.0117 145.012 39.7949 145.656 39.3613C146.301 38.9277 147.01 38.3066 147.783 37.498V35.1074ZM170.389 28.2695C170.717 28.6797 170.945 29.1133 171.074 29.5703C171.215 30.0156 171.285 30.4727 171.285 30.9414C171.285 31.9375 171.109 32.8164 170.758 33.5781C170.418 34.3398 169.932 34.9785 169.299 35.4941C168.678 36.0098 167.928 36.4023 167.049 36.6719C166.182 36.9297 165.221 37.0586 164.166 37.0586C163.545 37.0586 162.971 37 162.443 36.8828C161.916 36.7539 161.518 36.6074 161.248 36.4434C161.049 36.6426 160.879 36.8652 160.738 37.1113C160.598 37.3457 160.527 37.6152 160.527 37.9199C160.527 38.1074 160.574 38.2949 160.668 38.4824C160.762 38.6699 160.896 38.8398 161.072 38.9922C161.26 39.1328 161.477 39.25 161.723 39.3438C161.98 39.4375 162.268 39.4902 162.584 39.502L166.82 39.6602C167.77 39.6836 168.625 39.8066 169.387 40.0293C170.16 40.2402 170.822 40.5449 171.373 40.9434C171.924 41.3418 172.346 41.8281 172.639 42.4023C172.943 42.9648 173.096 43.6094 173.096 44.3359C173.096 45.168 172.908 45.9531 172.533 46.6914C172.158 47.4297 171.59 48.0684 170.828 48.6074C170.078 49.1582 169.141 49.5918 168.016 49.9082C166.891 50.2246 165.584 50.3828 164.096 50.3828C162.654 50.3828 161.412 50.2656 160.369 50.0312C159.338 49.8086 158.488 49.4922 157.82 49.082C157.164 48.6719 156.678 48.1797 156.361 47.6055C156.045 47.043 155.887 46.4219 155.887 45.7422C155.887 45.332 155.939 44.9512 156.045 44.5996C156.15 44.248 156.309 43.9082 156.52 43.5801C156.73 43.2637 156.994 42.9531 157.311 42.6484C157.627 42.3438 158.002 42.0391 158.436 41.7344C157.861 41.4062 157.422 40.9844 157.117 40.4688C156.824 39.9531 156.678 39.4023 156.678 38.8164C156.678 38.418 156.73 38.0488 156.836 37.709C156.941 37.3574 157.076 37.0234 157.24 36.707C157.416 36.3906 157.615 36.0859 157.838 35.793C158.061 35.5 158.295 35.2129 158.541 34.9316C158.107 34.498 157.744 33.9766 157.451 33.3672C157.17 32.7461 157.029 31.9727 157.029 31.0469C157.029 30.0508 157.205 29.166 157.557 28.3926C157.92 27.6074 158.418 26.9512 159.051 26.4238C159.684 25.8848 160.434 25.4805 161.301 25.2109C162.18 24.9297 163.135 24.7891 164.166 24.7891C164.693 24.7891 165.197 24.8184 165.678 24.877C166.17 24.9238 166.615 25.0117 167.014 25.1406H173.201V28.2695H170.389ZM160.281 45.373C160.281 46.0645 160.627 46.5742 161.318 46.9023C162.021 47.2305 163.006 47.3945 164.271 47.3945C165.08 47.3945 165.76 47.3184 166.311 47.166C166.873 47.0137 167.33 46.8145 167.682 46.5684C168.033 46.3223 168.285 46.0352 168.438 45.707C168.59 45.3789 168.666 45.0391 168.666 44.6875C168.666 44.3711 168.59 44.1016 168.438 43.8789C168.297 43.668 168.092 43.4863 167.822 43.334C167.564 43.1934 167.254 43.082 166.891 43C166.539 42.9297 166.146 42.8828 165.713 42.8594L161.934 42.7891C161.594 43.0234 161.312 43.2461 161.09 43.457C160.879 43.668 160.709 43.873 160.58 44.0723C160.463 44.2832 160.381 44.4941 160.334 44.7051C160.299 44.916 160.281 45.1387 160.281 45.373ZM161.002 31.0469C161.002 31.9961 161.277 32.752 161.828 33.3145C162.391 33.8652 163.17 34.1406 164.166 34.1406C164.693 34.1406 165.15 34.0527 165.537 33.877C165.936 33.7012 166.264 33.4668 166.521 33.1738C166.779 32.8809 166.973 32.541 167.102 32.1543C167.23 31.7676 167.295 31.3633 167.295 30.9414C167.295 29.9453 167.014 29.1719 166.451 28.6211C165.9 28.0586 165.127 27.7773 164.131 27.7773C163.604 27.7773 163.141 27.8652 162.742 28.041C162.355 28.2168 162.033 28.457 161.775 28.7617C161.518 29.0547 161.324 29.4004 161.195 29.7988C161.066 30.1973 161.002 30.6133 161.002 31.0469ZM192.344 32.6992C192.344 32.9922 192.332 33.373 192.309 33.8418C192.297 34.3105 192.273 34.75 192.238 35.1602H180.496C180.496 35.9453 180.613 36.6367 180.848 37.2344C181.094 37.832 181.434 38.3359 181.867 38.7461C182.312 39.1445 182.84 39.4492 183.449 39.6602C184.07 39.8711 184.756 39.9766 185.506 39.9766C186.373 39.9766 187.299 39.9121 188.283 39.7832C189.279 39.6426 190.311 39.4199 191.377 39.1152V42.5254C190.92 42.6543 190.422 42.7715 189.883 42.877C189.344 42.9824 188.793 43.0762 188.23 43.1582C187.668 43.2402 187.1 43.2988 186.525 43.334C185.951 43.3809 185.395 43.4043 184.855 43.4043C183.496 43.4043 182.277 43.2109 181.199 42.8242C180.121 42.4375 179.207 41.8691 178.457 41.1191C177.707 40.3574 177.133 39.4199 176.734 38.3066C176.336 37.1934 176.137 35.9043 176.137 34.4395C176.137 32.9863 176.336 31.668 176.734 30.4844C177.133 29.2891 177.695 28.2695 178.422 27.4258C179.148 26.5703 180.027 25.9141 181.059 25.457C182.102 24.9883 183.262 24.7539 184.539 24.7539C185.805 24.7539 186.924 24.9531 187.896 25.3516C188.869 25.7383 189.684 26.2832 190.34 26.9863C190.996 27.6895 191.494 28.5273 191.834 29.5C192.174 30.4727 192.344 31.5391 192.344 32.6992ZM187.984 32.084C187.996 31.3809 187.908 30.7715 187.721 30.2559C187.533 29.7285 187.275 29.2949 186.947 28.9551C186.631 28.6152 186.256 28.3633 185.822 28.1992C185.4 28.0352 184.943 27.9531 184.451 27.9531C183.373 27.9531 182.488 28.3164 181.797 29.043C181.105 29.7578 180.695 30.7715 180.566 32.084H187.984ZM208.076 32.084C208.1 31.416 208.064 30.8477 207.971 30.3789C207.889 29.9102 207.748 29.5234 207.549 29.2188C207.361 28.9141 207.127 28.6914 206.846 28.5508C206.564 28.4102 206.242 28.3398 205.879 28.3398C205.246 28.3398 204.59 28.6035 203.91 29.1309C203.242 29.6465 202.504 30.502 201.695 31.6973V43H197.301V25.1406H201.186L201.344 27.7422C201.637 27.2852 201.965 26.875 202.328 26.5117C202.703 26.1484 203.113 25.8379 203.559 25.5801C204.016 25.3105 204.52 25.1055 205.07 24.9648C205.621 24.8242 206.225 24.7539 206.881 24.7539C207.783 24.7539 208.58 24.9121 209.271 25.2285C209.975 25.5332 210.561 25.9902 211.029 26.5996C211.51 27.209 211.861 27.9766 212.084 28.9023C212.318 29.8164 212.418 30.877 212.383 32.084H208.076Z"
        fill="var(--text)" />
    <path d="M213.93 50.207V46.8145H233.723V50.207H213.93Z" fill="var(--accent)" class="accent"/>
    <path d="M250 0L255 5V68H250V0Z" fill="var(--border)" />
    <path d="M0 68H255V73H5L0 68Z" fill="var(--border)" />
    <style>
        svg {
            --border: #000000;
            --text: #000000;
            --background: #ffffff;
            --accent: #8C8C8C;
            
            @media (prefers-color-scheme: dark) {
                --text: #ffffff;
                --background: #212121;
            }
        }
    </style>
</svg>